<?xml version="1.0" encoding="UTF-8" standalone="no"?>
<svg
   width="242.48711"
   viewBox="0 0 242.48711 280"
   version="1.1"
   id="svg298"
   sodipodi:docname="statsbreaks.svg"
   inkscape:version="1.2 (1:1.2+202206011326+fc4e4096c5)"
   xml:space="preserve"
   height="280"
   xmlns:inkscape="http://www.inkscape.org/namespaces/inkscape"
   xmlns:sodipodi="http://sodipodi.sourceforge.net/DTD/sodipodi-0.dtd"
   xmlns="http://www.w3.org/2000/svg"
   xmlns:svg="http://www.w3.org/2000/svg"><sodipodi:namedview
     id="namedview300"
     pagecolor="#ffffff"
     bordercolor="#999999"
     borderopacity="1"
     inkscape:showpageshadow="0"
     inkscape:pageopacity="0"
     inkscape:pagecheckerboard="0"
     inkscape:deskcolor="#d1d1d1"
     showgrid="false"
     inkscape:zoom="0.834386"
     inkscape:cx="453.62698"
     inkscape:cy="239.09797"
     inkscape:window-width="1860"
     inkscape:window-height="1016"
     inkscape:window-x="0"
     inkscape:window-y="0"
     inkscape:window-maximized="1"
     inkscape:current-layer="svg298" /><defs
     id="defs267"><pattern
       id="hatch"
       patternUnits="userSpaceOnUse"
       width="5"
       height="5"
       patternTransform="rotate(45)"><line
         x1="0"
         y1="5"
         x2="0"
         stroke="white"
         stroke-linejoin="butt"
         stroke-width="1.3333333333333333"
         stroke-opacity="0.25"
         id="line264" /></pattern><pattern
       id="hatch-3"
       patternUnits="userSpaceOnUse"
       width="5"
       height="5"
       patternTransform="rotate(45)"><line
         x1="0"
         y1="5"
         x2="0"
         stroke="white"
         stroke-linejoin="butt"
         stroke-width="1.3333333333333333"
         stroke-opacity="0.25"
         id="line26819" /></pattern><pattern
       id="hatch-3-7"
       patternUnits="userSpaceOnUse"
       width="5"
       height="5"
       patternTransform="rotate(45)"><line
         x1="0"
         y1="5"
         x2="0"
         stroke="white"
         stroke-linejoin="butt"
         stroke-width="1.3333333333333333"
         stroke-opacity="0.25"
         id="line26819-5" /></pattern><pattern
       id="hatch-3-7-9"
       patternUnits="userSpaceOnUse"
       width="5"
       height="5"
       patternTransform="rotate(45)"><line
         x1="0"
         y1="5"
         x2="0"
         stroke="white"
         stroke-linejoin="butt"
         stroke-width="1.3333333333333333"
         stroke-opacity="0.25"
         id="line26819-5-2" /></pattern><pattern
       id="hatch-3-7-8"
       patternUnits="userSpaceOnUse"
       width="5"
       height="5"
       patternTransform="rotate(45)"><line
         x1="0"
         y1="5"
         x2="0"
         stroke="white"
         stroke-linejoin="butt"
         stroke-width="1.3333333333333333"
         stroke-opacity="0.25"
         id="line26819-5-9" /></pattern><pattern
       id="hatch-3-7-8-7"
       patternUnits="userSpaceOnUse"
       width="5"
       height="5"
       patternTransform="rotate(45)"><line
         x1="0"
         y1="5"
         x2="0"
         stroke="white"
         stroke-linejoin="butt"
         stroke-width="1.3333333333333333"
         stroke-opacity="0.25"
         id="line26819-5-9-3" /></pattern><pattern
       id="hatch-3-7-8-7-6"
       patternUnits="userSpaceOnUse"
       width="5"
       height="5"
       patternTransform="rotate(45)"><line
         x1="0"
         y1="5"
         x2="0"
         stroke="white"
         stroke-linejoin="butt"
         stroke-width="1.3333333333333333"
         stroke-opacity="0.25"
         id="line26819-5-9-3-1" /></pattern><pattern
       id="hatch-3-7-8-7-6-2"
       patternUnits="userSpaceOnUse"
       width="5"
       height="5"
       patternTransform="rotate(45)"><line
         x1="0"
         y1="5"
         x2="0"
         stroke="white"
         stroke-linejoin="butt"
         stroke-width="1.3333333333333333"
         stroke-opacity="0.25"
         id="line26819-5-9-3-1-9" /></pattern></defs><g
     inkscape:groupmode="layer"
     id="layer3"
     inkscape:label="Layer 3" /><clipPath
     id="sphere"><path
       d="M 33.181299,213.59791 C 30.051971,209.24339 26.922644,204.62169 25.35798,202.31085 23.793316,200 23.793316,200 23.793316,200 c 0,0 0,0 0,0 0,0 0,0 0,0 0,0 0,0 0,0 0,0 0,0 0,0 0,0 0,0 0,0 0,0 0,0 0,0 0,0 0,0 0,0 0,0 0,0 0,0 0,0 0,0 0,0 0,0 0,0 0,0 0,0 0,0 0,0 0,0 0,0 0,0 0,0 0,0 0,0 0,0 0,0 0,0 0,0 0,0 0,0 0,0 0,0 0,0 0,0 0,0 0,0 0,0 0,0 0,0 0,0 0,0 0,0 0,0 0,0 0,0 0,0 0,0 0,0 0,0 0,0 0,0 0,0 0,0 0,0 0,0 0,0 0,0 0,0 0,0 0,0 0,0 0,0 0,0 0,0 0,0 0,0 0,0 0,0 0,0 0,0 0,0 0,0 0,0 0,0 0,0 0,0 0,0 0,0 0,0 0,0 0,0 0,0 0,0 0,0 0,0 0,0 0,0 0,0 0,0 0,0 0,0 0,0 0,0 0,0 0,0 0,0 0,0 0,0 0,0 0,0 0,0 0.1116,-0.17452 0.1116,-0.17452 0.334799,-0.52355 1.999284,-2.97236 1.664485,-2.44881 4.770255,-6.9974 7.876025,-11.28518 3.105771,-4.28779 6.211541,-8.31478 9.317311,-12.11338 3.10577,-3.7986 6.21154,-7.36882 9.31731,-10.73653 3.10577,-3.36771 6.21154,-6.53293 9.31731,-9.5165 3.105771,-2.98358 6.211541,-5.78552 9.317311,-8.42277 3.10577,-2.63725 6.21154,-5.10981 9.31731,-7.4315 3.10577,-2.3217 6.21154,-4.49254 9.31731,-6.52383 3.10577,-2.0313 6.211541,-3.92306 9.317311,-5.68456 3.105772,-1.7615 6.211542,-3.39273 9.317312,-4.90128 3.10577,-1.50854 6.21154,-2.89439 9.31731,-4.16369 3.10577,-1.26929 6.21154,-2.42203 9.31731,-3.46312 3.10577,-1.04109 6.21154,-1.97052 9.31731,-2.79212 3.10577,-0.82161 6.21154,-1.53538 9.31731,-2.14418 3.10577,-0.6088 6.21154,-1.11264 9.31731,-1.51348 3.10577,-0.40084 6.21154,-0.69868 9.31731,-0.8947 3.10577,-0.19601 6.21154,-0.29018 9.31731,-0.28289 3.10577,0.007 6.21154,0.11608 9.31731,0.32674 3.10577,0.21067 6.21154,0.52322 9.31731,0.93889 3.10577,0.41566 6.21154,0.93443 9.31731,1.55835 3.10577,0.62391 6.21154,1.35297 9.31731,2.19011 3.10577,0.83713 6.21154,1.78233 9.31731,2.83951 3.10577,1.05717 6.21154,2.22631 9.31731,3.5124 3.10577,1.2861 6.21154,2.68915 9.31731,4.21538 3.10577,1.52623 6.21154,3.17565 9.31731,4.95593 3.10577,1.78029 6.21154,3.69144 9.31731,5.74287 3.10577,2.05143 6.21154,4.24314 9.31731,6.58661 3.10577,2.34348 6.21154,4.83872 9.31731,7.49975 3.10577,2.66104 6.21154,5.48787 9.31731,8.4977 3.10577,3.00983 6.21154,6.20264 9.31731,9.59964 3.10577,3.397 6.21154,6.99818 9.31731,10.82983 3.10577,3.83165 6.21155,7.89378 9.31732,12.21934 3.10577,4.32556 6.21154,8.91455 7.76442,11.20905 C 322.61685,200 322.61685,200 322.61685,200 c 0,0 0,0 0,0 0,0 0,0 0,0 0,0 0,0 0,0 0,0 0,0 0,0 0,0 0,0 0,0 0,0 0,0 0,0 0,0 0,0 0,0 0,0 0,0 0,0 0,0 0,0 0,0 0,0 0,0 0,0 0,0 0,0 0,0 0,0 0,0 0,0 0,0 0,0 0,0 0,0 0,0 0,0 0,0 0,0 0,0 0,0 0,0 0,0 0,0 0,0 0,0 0,0 0,0 0,0 0,0 0,0 0,0 0,0 0,0 0,0 0,0 0,0 0,0 0,0 0,0 0,0 0,0 0,0 0,0 0,0 0,0 0,0 0,0 0,0 0,0 0,0 0,0 0,0 0,0 0,0 0,0 0,0 0,0 0,0 0,0 0,0 0,0 0,0 0,0 0,0 0,0 0,0 0,0 0,0 0,0 0,0 0,0 0,0 0,0 0,0 0,0 0,0 0,0 0,0 0,0 0,0 0,0 0,0 0,0 0,0 0,0 0,0 0,0 0,0 0,0 0,0 0,0 0,0 0,0 0,0 0,0 0,0 -0.11904,0.1861 -0.11904,0.18609 -0.35713,0.55829 -1.93103,2.88195 -1.5739,2.32366 -4.48362,6.59879 -7.39334,10.6432 -2.90972,4.04442 -5.81945,7.85813 -8.72917,11.46832 -2.90972,3.61019 -5.81944,7.01686 -8.72916,10.242 -2.90973,3.22515 -5.81945,6.26877 -8.72917,9.14881 -2.90972,2.88004 -5.81944,5.59651 -8.72917,8.16415 -2.90972,2.56764 -5.81944,4.98646 -8.72916,7.26862 -2.90973,2.28217 -5.81945,4.42768 -8.72917,6.44664 -2.90972,2.01896 -5.81944,3.91135 -8.72917,5.68556 -2.90972,1.77421 -5.81944,3.43024 -8.72916,4.97501 -2.90972,1.54477 -5.81945,2.97828 -8.72917,4.30627 -2.90972,1.32799 -5.81944,2.55045 -8.72916,3.67206 -2.90973,1.1216 -5.81945,2.14236 -8.72917,3.06604 -2.90972,0.92368 -5.81945,1.75028 -8.72917,2.48276 -2.90972,0.73249 -5.81944,1.37086 -8.72916,1.91735 -2.90973,0.54649 -5.81945,1.0011 -8.72917,1.3654 -2.90972,0.3643 -5.81944,0.63828 -8.72917,0.82288 -2.90972,0.1846 -5.81944,0.27982 -8.72916,0.28598 -2.90972,0.006 -5.81945,-0.0767 -8.72917,-0.24898 -2.90972,-0.17224 -5.81944,-0.43382 -8.72917,-0.78563 -2.90972,-0.35181 -5.81944,-0.79385 -8.72916,-1.32764 -2.90972,-0.53379 -5.81945,-1.15933 -8.72917,-1.87881 -2.90972,-0.71948 -5.81944,-1.53289 -8.72916,-2.44316 -2.90973,-0.91026 -5.81945,-1.91737 -8.72917,-3.02505 -2.90972,-1.10767 -5.81944,-2.31591 -8.72917,-3.62932 -2.90972,-1.31341 -5.81944,-2.732 -8.72916,-4.26141 -2.90973,-1.5294 -5.819448,-3.16963 -8.72917,-4.92752 -2.909722,-1.75789 -5.819444,-3.63345 -8.729166,-5.63493 -2.909722,-2.00148 -5.819444,-4.1289 -8.729166,-6.3922 -2.909722,-2.2633 -5.819445,-4.66249 -8.729167,-7.20959 -2.909722,-2.5471 -5.819444,-5.24211 -8.729166,-8.09958 -2.909722,-2.85747 -5.819444,-5.87741 -8.729166,-9.0775 -2.909722,-3.2001 -5.819445,-6.58036 -8.838969,-10.31417 -3.019525,-3.73381 -6.148853,-7.82117 -9.278181,-12.1757"
       id="path289" /></clipPath><g
     inkscape:groupmode="layer"
     id="layer1"
     inkscape:label="Layer 1"
     transform="matrix(0.99999473,0,0,0.99999473,39.212899,212.7438)"
     style="stroke-width:1.00001" /><g
     inkscape:groupmode="layer"
     id="layer2"
     inkscape:label="Layer 2"
     transform="matrix(0.99999473,0,0,0.99999473,39.212899,212.7438)"
     style="stroke-width:1.00001" /><g
     id="g36011"
     transform="scale(0.7)"
     style="stroke-width:1.42857"><path
       d="M 346.41016,100 V 300 L 173.20508,400 0,300 V 100 L 173.20508,0 Z"
       stroke="none"
       fill="#c42727"
       id="path269"
       style="fill:#4e0473;fill-opacity:1;stroke-width:2.04082" /><path
       d="M 346.41016,100 V 300 L 173.20508,400 0,300 V 100 L 173.20508,0 Z"
       stroke="none"
       fill="#e63e32"
       id="path271"
       style="fill:#ffffff;fill-opacity:1;stroke-width:2.04082"
       transform="matrix(0.95,0,0,0.95,8.660254,10)" /><path
       style="fill:#ede6f1;fill-opacity:1;stroke:none;stroke-width:1.42857px;stroke-linecap:butt;stroke-linejoin:miter;stroke-opacity:1"
       d="M 8.660254,105 H 337.74991 L 173.20508,10 8.660254,105"
       id="path34897" /><path
       style="fill:#ede6f1;fill-opacity:1;stroke:none;stroke-width:1.35714;stroke-opacity:1"
       d="M 173.20513,390 8.6602076,105 v 190 z"
       id="path271-9" /><path
       style="fill:#ede6f1;fill-opacity:1;stroke:none;stroke-width:1.35714;stroke-opacity:1"
       d="M 337.74995,105 173.20503,390 337.74995,295 Z"
       id="path33009" /><g
       id="g25142"
       transform="matrix(1.0145001,0,0,1.0145001,18.020384,13.751296)"
       style="stroke-width:1.40816"><rect
         style="fill:#4e0473;fill-opacity:1;stroke-width:28.163;stroke-linecap:round;stroke-linejoin:round;stop-color:#000000"
         id="rect1613"
         width="118.10677"
         height="39.65218"
         x="16.889322"
         y="231.48291"
         rx="0"
         ry="0" /><text
         xml:space="preserve"
         style="font-style:normal;font-weight:normal;font-size:48.2083px;line-height:1.25;font-family:sans-serif;fill:#000000;fill-opacity:1;stroke:none;stroke-width:1.40816"
         x="21.685902"
         y="266.25092"
         id="text1557"><tspan
           sodipodi:role="line"
           id="tspan1555"
           x="21.685902"
           y="266.25092"
           style="font-style:normal;font-variant:normal;font-weight:bold;font-stretch:normal;font-size:48.2083px;font-family:Roboto;-inkscape-font-specification:'Roboto Bold';stroke-width:1.40816"><tspan
             style="font-style:italic;font-variant:normal;font-weight:bold;font-stretch:normal;font-family:Roboto;-inkscape-font-specification:'Roboto Bold Italic';fill:#ffffff;stroke-width:1.40816"
             id="tspan1559">stats </tspan><tspan
             style="fill:#4e0473;fill-opacity:1;stroke-width:1.40816"
             id="tspan20390">breaks</tspan></tspan></text></g><g
       id="g25134"
       transform="matrix(1.157347,0,0,1.157347,-187.17797,25.781044)"
       style="stroke-width:1.23436"><circle
         style="fill:#4e0473;fill-opacity:1;stroke-width:24.687;stroke-linecap:round;stroke-linejoin:round;stop-color:#000000"
         id="path3018"
         cx="311.07544"
         cy="252.40669"
         r="20" /><text
         xml:space="preserve"
         style="font-style:normal;font-weight:normal;font-size:28.925px;line-height:1.25;font-family:sans-serif;fill:#000000;fill-opacity:1;stroke:none;stroke-width:1.23434"
         x="295.13193"
         y="259.54007"
         id="text1557-7"><tspan
           sodipodi:role="line"
           id="tspan1555-0"
           x="295.13193"
           y="259.54007"
           style="font-style:normal;font-variant:normal;font-weight:bold;font-stretch:normal;font-size:28.925px;font-family:Roboto;-inkscape-font-specification:'Roboto Bold';fill:#ffffff;stroke-width:1.23434">.js</tspan></text></g><rect
       style="opacity:1;fill:#4e0473;fill-opacity:0.1;stroke-width:28.5713;stroke-linecap:round;stroke-linejoin:round;stop-color:#000000"
       id="rect20465"
       width="46.759003"
       height="62.508465"
       x="16.889322"
       y="170.76437" /><rect
       style="opacity:1;fill:#4e0473;fill-opacity:0.2;stroke-width:28.5713;stroke-linecap:round;stroke-linejoin:round;stop-color:#000000"
       id="rect20465-3"
       width="46.759003"
       height="85.310371"
       x="70.217041"
       y="147.96246" /><rect
       style="opacity:1;fill:#4e0473;fill-opacity:0.4;stroke-width:28.5713;stroke-linecap:round;stroke-linejoin:round;stop-color:#000000"
       id="rect20465-3-6"
       width="46.759003"
       height="172.19795"
       x="123.54471"
       y="61.074886"
       inkscape:transform-center-x="59.737041"
       inkscape:transform-center-y="49.538286" /><rect
       style="opacity:1;fill:#4e0473;fill-opacity:0.6;stroke-width:28.5713;stroke-linecap:round;stroke-linejoin:round;stop-color:#000000"
       id="rect20465-3-6-0"
       width="46.759003"
       height="140.4845"
       x="176.87242"
       y="92.788338"
       inkscape:transform-center-x="59.737041"
       inkscape:transform-center-y="40.414888" /><rect
       style="opacity:1;fill:#4e0473;fill-opacity:0.8;stroke-width:28.5713;stroke-linecap:round;stroke-linejoin:round;stop-color:#000000"
       id="rect20465-3-6-0-6"
       width="46.759003"
       height="105.14287"
       x="230.2001"
       y="128.12997"
       inkscape:transform-center-x="59.737041"
       inkscape:transform-center-y="30.247729" /><rect
       style="opacity:1;fill:#4e0473;fill-opacity:1;stroke-width:28.5713;stroke-linecap:round;stroke-linejoin:round;stop-color:#000000"
       id="rect20465-3-6-0-6-2"
       width="46.759003"
       height="27.676634"
       x="283.5278"
       y="205.59621"
       inkscape:transform-center-x="59.737041"
       inkscape:transform-center-y="7.96208" /><path
       style="fill:none;fill-opacity:1;stroke:#4e0473;stroke-width:4.28571;stroke-linecap:butt;stroke-linejoin:miter;stroke-dasharray:none;stroke-opacity:1"
       d="m 39.640161,170.33827 53.447329,-21.61371 11.67949,-18.74495 m 17.42299,-27.96297 24.75215,-39.72587 53.06461,31.46494 54.66337,35.53441 53.14737,76.71312"
       id="path24821"
       sodipodi:nodetypes="cccccccc" /><circle
       style="opacity:1;fill:#ffffff;fill-opacity:1;stroke:#4e0473;stroke-width:4.28571;stroke-linecap:round;stroke-linejoin:round;stroke-dasharray:none;stroke-opacity:1;stop-color:#000000"
       id="path24552"
       cx="39.518738"
       cy="171.0298"
       r="5.9584889" /><circle
       style="fill:#ffffff;fill-opacity:1;stroke:#4e0473;stroke-width:4.28571;stroke-linecap:round;stroke-linejoin:round;stroke-dasharray:none;stroke-opacity:1;stop-color:#000000"
       id="path24552-6"
       cx="93.060341"
       cy="148.57591"
       r="5.9584889" /><circle
       style="fill:#ffffff;fill-opacity:1;stroke:#4e0473;stroke-width:4.28571;stroke-linecap:round;stroke-linejoin:round;stroke-dasharray:none;stroke-opacity:1;stop-color:#000000"
       id="path24552-6-1"
       cx="146.60194"
       cy="62.406631"
       r="5.9584889" /><circle
       style="fill:#ffffff;fill-opacity:1;stroke:#4e0473;stroke-width:4.28571;stroke-linecap:round;stroke-linejoin:round;stroke-dasharray:none;stroke-opacity:1;stop-color:#000000"
       id="path24552-6-1-8"
       cx="200.14354"
       cy="94.978775"
       r="5.9584889" /><circle
       style="fill:#ffffff;fill-opacity:1;stroke:#4e0473;stroke-width:4.28571;stroke-linecap:round;stroke-linejoin:round;stroke-dasharray:none;stroke-opacity:1;stop-color:#000000"
       id="path24552-6-1-8-7"
       cx="253.68515"
       cy="128.61832"
       r="5.9584889" /><circle
       style="fill:#ffffff;fill-opacity:1;stroke:#4e0473;stroke-width:4.28571;stroke-linecap:round;stroke-linejoin:round;stroke-dasharray:none;stroke-opacity:1;stop-color:#000000"
       id="path24552-6-1-8-7-9"
       cx="307.22675"
       cy="206.68143"
       r="5.9584889" /><path
       style="fill:#4e0473;fill-opacity:1;stroke-width:1.42857"
       d="m 71.08958,128.75002 c -0.08236,-0.0358 -0.325286,-0.13967 -0.539813,-0.23088 -0.710076,-0.3019 -1.873275,-1.04594 -2.410462,-1.54185 -0.656271,-0.60582 -1.361017,-1.74417 -1.661846,-2.68426 -0.614847,-1.92146 -0.476387,-4.07908 0.380947,-5.93587 1.375298,-2.97868 4.439529,-4.6056 8.30272,-4.40829 1.130579,0.0577 1.825771,0.18191 3.196586,0.57093 0.712105,0.20213 2.114008,0.58566 3.115348,0.85225 1.61038,0.42896 1.91133,0.49426 2.60675,0.56653 1.43531,0.14916 2.35322,0.1119 3.52132,-0.1429 1.70314,-0.37151 3.22265,-1.22399 4.56355,-2.56026 0.20577,-0.20506 0.38249,-0.40404 0.39271,-0.44217 0.0312,-0.11636 -0.41751,-1.44863 -0.65939,-1.95791 -0.96843,-2.03898 -2.49112,-3.43301 -4.91156,-4.49656 -1.16538,-0.51206 -2.39931,-0.87217 -5.03778,-1.47024 -2.55569,-0.5793 -3.326082,-0.7969 -4.452782,-1.25748 -1.148948,-0.46975 -1.924965,-0.99314 -2.687205,-1.81241 -0.571763,-0.61455 -0.884937,-1.05761 -1.279847,-1.81071 -1.086376,-2.071777 -1.231291,-4.321312 -0.421714,-6.546443 0.499398,-1.372635 1.246649,-2.366235 2.439726,-3.244066 1.438288,-1.058256 3.298265,-1.594773 5.187072,-1.496212 0.82119,0.04285 2.1741,0.362191 2.91274,0.687581 2.71741,1.196889 4.60896,3.892013 4.63601,6.605518 0.008,0.788165 -0.079,1.29012 -0.426,2.460462 -0.41845,1.41158 -0.65867,1.84383 -1.47951,2.66254 -0.43318,0.43203 -0.72615,0.9124 -0.75287,1.23444 -0.0384,0.46287 0.32228,0.88057 1.18983,1.37782 0.24834,0.14232 1.26291,0.63692 2.25463,1.09905 2.65301,1.23632 3.78504,1.83337 5.28918,2.78961 1.26364,0.80335 2.85042,2.03726 3.70401,2.8803 l 0.31909,0.31515 1.28009,-0.14794 c 1.28789,-0.14884 3.46562,-0.39816 8.98364,-1.02852 3.02755,-0.34585 5.49868,-0.62866 11.3258,-1.29617 6.32222,-0.72424 6.1549,-0.70793 7.22728,-0.70437 1.08247,0.004 1.83394,0.10125 3.06484,0.39834 0.75734,0.18275 1.33403,0.35076 1.65408,0.48228 1.94562,0.79829 3.35235,1.98252 4.26023,3.58635 0.20986,0.37073 0.36155,0.68616 0.33711,0.70097 -0.052,0.0315 -1.44328,0.20982 -19.03409,2.4395 -7.14245,0.90533 -10.39955,1.31978 -10.70251,1.36183 -0.10624,0.0148 -0.10433,0.0248 0.0229,0.12243 0.15764,0.12086 11.32003,8.34004 18.99042,13.98312 2.81637,2.07199 5.14621,3.79259 5.17742,3.82354 0.0387,0.0384 -0.14874,0.17648 -0.59017,0.4347 -1.33695,0.78205 -2.76078,1.17505 -4.25999,1.17579 -1.01332,5.1e-4 -1.39797,-0.0558 -2.62752,-0.38505 -1.94647,-0.52115 -2.54281,-0.83736 -5.53823,-2.93691 -1.1999,-0.84103 -2.66729,-1.86928 -3.26086,-2.28498 -0.59357,-0.41572 -1.74963,-1.22538 -2.56902,-1.79925 -0.81939,-0.57386 -2.1549,-1.50933 -2.96781,-2.07882 -0.81289,-0.56949 -2.14842,-1.50491 -2.96782,-2.07872 -0.81941,-0.5738 -2.14962,-1.50568 -2.95601,-2.07086 -0.80639,-0.56517 -2.12599,-1.48983 -2.93244,-2.05479 -0.80645,-0.56496 -2.02244,-1.41715 -2.70221,-1.89375 l -1.23594,-0.86656 -0.35974,0.0623 c -3.87649,0.67127 -7.06861,0.81175 -11.37455,0.50054 -2.12411,-0.15352 -2.49387,-0.13165 -2.86794,0.16961 -0.18527,0.14922 -0.20886,0.19595 -0.32993,0.65326 -0.12842,0.4864 -0.12854,0.50706 -0.009,1.62959 0.1689,1.57785 0.14175,2.32789 -0.11982,3.31024 -0.45539,1.70907 -1.58424,3.22321 -3.066943,4.11237 -1.476048,0.88519 -3.081925,1.24243 -4.93129,1.09703 -0.475587,-0.0374 -1.907143,-0.34853 -2.211779,-0.48072 z m 2.451025,-2.01343 c 0.688836,0.0459 1.59676,-0.0281 2.060149,-0.16793 0.854519,-0.25776 1.610666,-0.78336 2.268996,-1.5772 1.51901,-1.83162 1.90321,-4.42781 0.926011,-6.25739 -0.349533,-0.65442 -1.173281,-1.4549 -1.995155,-1.93877 -0.503608,-0.29649 -1.685509,-0.60321 -2.293869,-0.59535 -2.348979,0.0305 -4.590807,1.44851 -5.530743,3.49815 -0.306934,0.6693 -0.518418,1.71764 -0.497713,2.4675 0.03289,1.1932 0.816488,2.57091 1.928396,3.39051 0.874253,0.64443 2.117723,1.1128 3.133941,1.18044 z m 7.174045,-24.75665 c 1.53753,-0.002 2.76926,-0.58143 3.70819,-1.74544 0.77839,-0.96496 1.24497,-2.408227 1.20624,-3.7312 -0.0478,-1.632712 -0.70963,-3.060161 -1.89894,-4.0958 -1.18635,-1.033062 -3.01741,-1.48667 -4.673903,-1.157862 -1.116082,0.221542 -2.071676,0.75493 -2.720225,1.518369 -0.773146,0.910094 -1.291399,2.207161 -1.30675,3.270446 -0.01721,1.190944 0.384932,2.430027 1.113685,3.431707 1.179312,1.62097 2.801861,2.51172 4.571703,2.50979 z"
       id="path25402"
       inkscape:transform-center-x="-27.23297"
       inkscape:transform-center-y="124.65228" /></g></svg>
