<?xml version="1.0" encoding="UTF-8" standalone="no"?>
<svg
   width="346.41016151377545"
   viewBox="0,0,346.41016151377545,400"
   version="1.1"
   id="svg298"
   sodipodi:docname="statsbreaks.svg"
   inkscape:version="1.2 (1:1.2+202206011326+fc4e4096c5)"
   xml:space="preserve"
   xmlns:inkscape="http://www.inkscape.org/namespaces/inkscape"
   xmlns:sodipodi="http://sodipodi.sourceforge.net/DTD/sodipodi-0.dtd"
   xmlns="http://www.w3.org/2000/svg"
   xmlns:svg="http://www.w3.org/2000/svg"><sodipodi:namedview
     id="namedview300"
     pagecolor="#ffffff"
     bordercolor="#999999"
     borderopacity="1"
     inkscape:showpageshadow="0"
     inkscape:pageopacity="0"
     inkscape:pagecheckerboard="0"
     inkscape:deskcolor="#d1d1d1"
     showgrid="false"
     inkscape:zoom="0.834386"
     inkscape:cx="104.26829"
     inkscape:cy="299.02227"
     inkscape:window-width="1860"
     inkscape:window-height="1016"
     inkscape:window-x="0"
     inkscape:window-y="0"
     inkscape:window-maximized="1"
     inkscape:current-layer="svg298" /><defs
     id="defs267"><pattern
       id="hatch"
       patternUnits="userSpaceOnUse"
       width="5"
       height="5"
       patternTransform="rotate(45)"><line
         x1="0"
         y1="5"
         x2="0"
         stroke="white"
         stroke-linejoin="butt"
         stroke-width="1.3333333333333333"
         stroke-opacity="0.25"
         id="line264" /></pattern><pattern
       id="hatch-3"
       patternUnits="userSpaceOnUse"
       width="5"
       height="5"
       patternTransform="rotate(45)"><line
         x1="0"
         y1="5"
         x2="0"
         stroke="white"
         stroke-linejoin="butt"
         stroke-width="1.3333333333333333"
         stroke-opacity="0.25"
         id="line26819" /></pattern><pattern
       id="hatch-3-7"
       patternUnits="userSpaceOnUse"
       width="5"
       height="5"
       patternTransform="rotate(45)"><line
         x1="0"
         y1="5"
         x2="0"
         stroke="white"
         stroke-linejoin="butt"
         stroke-width="1.3333333333333333"
         stroke-opacity="0.25"
         id="line26819-5" /></pattern><pattern
       id="hatch-3-7-9"
       patternUnits="userSpaceOnUse"
       width="5"
       height="5"
       patternTransform="rotate(45)"><line
         x1="0"
         y1="5"
         x2="0"
         stroke="white"
         stroke-linejoin="butt"
         stroke-width="1.3333333333333333"
         stroke-opacity="0.25"
         id="line26819-5-2" /></pattern><pattern
       id="hatch-3-7-8"
       patternUnits="userSpaceOnUse"
       width="5"
       height="5"
       patternTransform="rotate(45)"><line
         x1="0"
         y1="5"
         x2="0"
         stroke="white"
         stroke-linejoin="butt"
         stroke-width="1.3333333333333333"
         stroke-opacity="0.25"
         id="line26819-5-9" /></pattern><pattern
       id="hatch-3-7-8-7"
       patternUnits="userSpaceOnUse"
       width="5"
       height="5"
       patternTransform="rotate(45)"><line
         x1="0"
         y1="5"
         x2="0"
         stroke="white"
         stroke-linejoin="butt"
         stroke-width="1.3333333333333333"
         stroke-opacity="0.25"
         id="line26819-5-9-3" /></pattern><pattern
       id="hatch-3-7-8-7-6"
       patternUnits="userSpaceOnUse"
       width="5"
       height="5"
       patternTransform="rotate(45)"><line
         x1="0"
         y1="5"
         x2="0"
         stroke="white"
         stroke-linejoin="butt"
         stroke-width="1.3333333333333333"
         stroke-opacity="0.25"
         id="line26819-5-9-3-1" /></pattern><pattern
       id="hatch-3-7-8-7-6-2"
       patternUnits="userSpaceOnUse"
       width="5"
       height="5"
       patternTransform="rotate(45)"><line
         x1="0"
         y1="5"
         x2="0"
         stroke="white"
         stroke-linejoin="butt"
         stroke-width="1.3333333333333333"
         stroke-opacity="0.25"
         id="line26819-5-9-3-1-9" /></pattern></defs><g
     inkscape:groupmode="layer"
     id="layer3"
     inkscape:label="Layer 3" /><path
     d="M346.4101615137755,100.00000000000001L346.4101615137755,300L173.20508075688772,400L-2.842170943040401e-14,300L0,99.99999999999997L173.2050807568877,0Z"
     stroke="none"
     fill="#c42727"
     id="path269"
     style="fill:#4e0473;fill-opacity:1" /><path
     d="M346.4101615137755,100.00000000000001L346.4101615137755,300L173.20508075688772,400L-2.842170943040401e-14,300L0,99.99999999999997L173.2050807568877,0Z"
     stroke="none"
     fill="#e63e32"
     id="path271"
     style="fill:#ffffff;fill-opacity:1"
     transform="translate(173.20508075688772, 200) scale(0.95) translate(-173.20508075688772, -200) " /><path
     style="fill:#ede6f1;stroke:none;stroke-width:1px;stroke-linecap:butt;stroke-linejoin:miter;stroke-opacity:1;fill-opacity:1"
     d="M 8.660254,105 H 337.74991 L 173.20508,10 8.660254,105"
     id="path34897" /><path
     style="fill:#ede6f1;fill-opacity:1;stroke:none;stroke-width:0.95;stroke-opacity:1"
     d="M 173.20513,390 8.6602076,105 v 190 z"
     id="path271-9" /><path
     style="fill:#ede6f1;fill-opacity:1;stroke:none;stroke-width:0.95;stroke-opacity:1"
     d="M 337.74995,105 173.20503,390 337.74995,295 Z"
     id="path33009" /><clipPath
     id="sphere"><path
       d="M33.181299215715306,213.59791467888417C30.051971494145572,209.2433880663356,26.922643772575828,204.62169403316838,25.357979911790895,202.3108470165847C23.793316051005963,200.000000000001,23.793316051005842,200.0000000000008,23.79331605100575,200.00000000000065C23.79331605100566,200.00000000000054,23.793316051005604,200.00000000000043,23.79331605100556,200.00000000000034C23.79331605100552,200.0000000000003,23.79331605100549,200.00000000000023,23.793316051005473,200.00000000000023C23.79331605100545,200.0000000000002,23.793316051005444,200.00000000000014,23.793316051005434,200.00000000000014C23.793316051005423,200.00000000000014,23.793316051005416,200.0000000000001,23.79331605100541,200.0000000000001C23.793316051005405,200.0000000000001,23.793316051005405,200.00000000000009,23.7933160510054,200.00000000000009C23.793316051005394,200.00000000000009,23.793316051005387,200.00000000000003,23.79331605100538,200.00000000000003C23.793316051005377,200.00000000000003,23.793316051005377,200.00000000000003,23.793316051005373,200C23.793316051005366,200,23.79331605100536,200,23.793316051005352,200C23.79331605100535,200,23.79331605100535,200,23.79331605100535,200C23.79331605100535,200,23.79331605100535,200,23.79331605100535,200C23.79331605100535,200,23.79331605100535,200,23.79331605100535,200C23.79331605100535,200,23.79331605100535,200,23.79331605100535,200C23.79331605100535,200,23.79331605100535,200,23.79331605100535,200C23.79331605100535,200,23.79331605100535,200,23.79331605100535,200C23.79331605100535,200,23.79331605100535,200,23.79331605100535,200C23.79331605100535,200,23.79331605100535,200,23.79331605100535,200C23.79331605100535,200,23.79331605100535,200,23.79331605100535,200C23.79331605100535,200,23.79331605100535,200,23.79331605100535,200C23.79331605100535,200,23.79331605100535,200,23.79331605100535,200C23.79331605100535,200,23.79331605100535,200,23.79331605100535,200C23.79331605100535,200,23.79331605100535,200,23.79331605100535,200C23.79331605100535,200,23.79331605100535,200,23.79331605100535,200C23.79331605100535,200,23.79331605100535,200,23.79331605100535,200C23.79331605100535,200,23.79331605100535,200,23.79331605100535,200C23.79331605100535,200,23.79331605100535,200,23.79331605100535,200C23.79331605100535,200,23.79331605100535,200,23.79331605100535,200C23.79331605100535,200,23.79331605100535,200,23.79331605100535,200C23.79331605100535,200,23.79331605100535,200,23.79331605100535,200C23.79331605100535,200,23.79331605100535,200,23.79331605100535,200C23.79331605100535,200,23.79331605100535,200,23.793316051005352,200C23.79331605100536,200,23.793316051005366,200,23.793316051005373,199.99999999999997C23.793316051005377,199.99999999999997,23.793316051005377,199.99999999999997,23.79331605100538,199.99999999999997C23.793316051005387,199.99999999999997,23.793316051005394,199.99999999999991,23.7933160510054,199.99999999999991C23.793316051005405,199.99999999999991,23.793316051005405,199.99999999999991,23.793316051005405,199.99999999999991C23.793316051005405,199.99999999999991,23.793316051005405,199.99999999999991,23.793316051005405,199.99999999999991C23.793316051005405,199.99999999999991,23.793316051005405,199.99999999999991,23.793316051005405,199.99999999999991C23.793316051005405,199.99999999999991,23.793316051005405,199.99999999999991,23.793316051005405,199.99999999999991C23.793316051005405,199.99999999999991,23.793316051005405,199.9999999999999,23.793316051005405,199.9999999999999C23.793316051005405,199.9999999999999,23.793316051005405,199.9999999999999,23.90491589658812,199.82548211143958C24.016515742170828,199.65096422287925,24.239715433336254,199.30192844575868,25.904200332764116,196.8531182586961C27.568685232191978,194.40430807163352,30.674455339882275,189.855723474629,33.780225447572576,185.56793721494776C36.88599555526287,181.28015095526658,39.99176566295318,177.2531630329087,43.097535770643475,173.45456133699426C46.203305878333765,169.65595964107976,49.30907598602406,166.08574417160864,52.41484609371437,162.71803004076062C55.52061620140466,159.3503159099126,58.62638630909495,156.18510311768765,61.732156416785244,153.201525967498C64.83792652447553,150.21794881730833,67.94369663216582,147.41600730915397,71.04946673985613,144.77875796361218C74.15523684754642,142.1415086180704,77.26100695523671,139.66895143514117,80.36677706292701,137.34725535232454C83.4725471706173,135.0255592695079,86.57831727830761,132.85472428680382,89.6840873859979,130.82342642925377C92.78985749368819,128.79212857170373,95.89562760137848,126.90036783930766,99.00139770906878,125.13887022556868C102.10716781675906,123.37737261182968,105.21293792444936,121.74613811674776,108.31870803213967,120.23759488658476C111.42447813982994,118.72905165642179,114.53024824752026,117.34319969117776,117.63601835521054,116.07390349418864C120.74178846290084,114.80460729719952,123.84755857059115,113.65186686846529,126.95332867828142,112.61077994903788C130.05909878597174,111.56969302961046,133.16486889366203,110.64025961948987,136.27063900135232,109.81865644183945C139.3764091090426,108.997053264189,142.4821792167329,108.2832803190088,145.5879493244232,107.67447804226356C148.6937194321135,107.06567576551835,151.79948953980377,106.56184415720814,154.9052596474941,106.1610040740925C158.01102975518438,105.76016399097686,161.11679986287467,105.46231543305582,164.22256997056496,105.26630350950545C167.32834007825525,105.07029158595508,170.43411018594557,104.97611629677539,173.53988029363586,104.98341479070844C176.64565040132615,104.99071328464152,179.75142050901647,105.0994855616873,182.85719061670673,105.31015077546857C185.96296072439705,105.52081598924981,189.06873083208734,105.83337413976649,192.17450093977766,106.24903798135263C195.28027104746795,106.66470182293875,198.3860411551582,107.18347135559429,201.49181126284853,107.80738679382516C204.59758137053882,108.43130223205605,207.7033514782291,109.16036357586223,210.80912158591943,109.9974964935077C213.9148916936097,110.83462941115313,217.0206618013,111.7798339026378,220.1264319089903,112.83700649528811C223.2322020166806,113.89417908793843,226.33797212437085,115.06331978175437,229.44374223206117,116.3494137706035C232.54951233975146,117.63550775945265,235.65528244744178,119.03855504333501,238.76105255513207,120.56478688018308C241.86682266282233,122.0910187170311,244.97259277051265,123.74043510684488,248.07836287820294,125.52072010732661C251.18413298589326,127.30100510780836,254.28990309358355,129.21215871895808,257.39567320127384,131.2635899288508C260.50144330896416,133.3150211387435,263.6072134166545,135.50672994737923,266.71298352434474,137.85020372629359C269.818753632035,140.19367750520792,272.9245237397253,142.6889162544009,276.03029384741563,145.34995243624795C279.13606395510595,148.01098861809498,282.2418340627962,150.83782223259607,285.3476041704865,153.84764872691542C288.4533742781768,156.85747522123475,291.5591443858671,160.05029459537238,294.66491449355743,163.44729257140685C297.77068460124764,166.84429054744135,300.87645470893796,170.44546712537272,303.9822248166282,174.27712007240916C307.08799492431854,178.10877301944558,310.19376503200886,182.1709023355871,313.2995351396992,186.49646171836972C316.40530524738944,190.82202110115236,319.51107535507975,195.4110105505761,321.06396040892486,197.705505275288C322.61684546277,199.9999999999999,322.61684546277,199.9999999999999,322.61684546277,199.9999999999999C322.61684546277,199.9999999999999,322.61684546277,199.9999999999999,322.61684546277,199.9999999999999C322.61684546277,199.9999999999999,322.61684546277,199.9999999999999,322.61684546277,199.9999999999999C322.61684546277,199.9999999999999,322.61684546277,199.99999999999991,322.61684546277,199.99999999999991C322.61684546277,199.99999999999991,322.61684546277,199.99999999999991,322.61684546277,199.99999999999991C322.61684546277,199.99999999999991,322.61684546277,199.99999999999991,322.61684546277,199.99999999999991C322.61684546277,199.99999999999991,322.61684546277,199.99999999999991,322.61684546277,199.99999999999991C322.61684546277,199.99999999999991,322.61684546277,199.99999999999991,322.61684546277,199.99999999999991C322.61684546277,199.99999999999991,322.6168454627701,199.99999999999997,322.6168454627701,199.99999999999997C322.6168454627701,199.99999999999997,322.6168454627701,199.99999999999997,322.6168454627701,200C322.6168454627701,200,322.6168454627701,200,322.6168454627701,200C322.61684546277013,200,322.61684546277013,200,322.6168454627701,200C322.61684546277013,200,322.61684546277013,200,322.6168454627701,200C322.61684546277013,200,322.61684546277013,200,322.6168454627701,200C322.61684546277013,200,322.61684546277013,200,322.6168454627701,200C322.61684546277013,200,322.61684546277013,200,322.6168454627701,200C322.61684546277013,200,322.61684546277013,200,322.6168454627701,200C322.61684546277013,200,322.61684546277013,200,322.6168454627701,200C322.61684546277013,200,322.61684546277013,200,322.6168454627701,200C322.61684546277013,200,322.61684546277013,200,322.6168454627701,200C322.61684546277013,200,322.61684546277013,200,322.6168454627701,200C322.61684546277013,200,322.61684546277013,200,322.6168454627701,200C322.61684546277013,200,322.61684546277013,200,322.6168454627701,200C322.61684546277013,200,322.61684546277013,200,322.6168454627701,200C322.61684546277013,200,322.61684546277013,200,322.6168454627701,200C322.61684546277013,200,322.61684546277013,200,322.6168454627701,200C322.61684546277013,200,322.61684546277013,200,322.6168454627701,200C322.61684546277013,200,322.61684546277013,200,322.6168454627701,200C322.61684546277013,200,322.61684546277013,200,322.6168454627701,200C322.61684546277013,200,322.61684546277013,200,322.6168454627701,200C322.61684546277013,200,322.61684546277013,200,322.6168454627701,200C322.61684546277013,200,322.61684546277013,200,322.6168454627701,200C322.61684546277013,200,322.61684546277013,200,322.6168454627701,200C322.6168454627701,200,322.6168454627701,200,322.6168454627701,200.00000000000003C322.6168454627701,200.00000000000003,322.6168454627701,200.00000000000003,322.6168454627701,200.00000000000003C322.6168454627701,200.00000000000003,322.61684546277,200.00000000000009,322.61684546277,200.00000000000009C322.61684546277,200.00000000000009,322.61684546277,200.00000000000009,322.61684546277,200.00000000000009C322.61684546277,200.00000000000009,322.61684546277,200.00000000000009,322.61684546277,200.00000000000009C322.61684546277,200.00000000000009,322.61684546277,200.00000000000009,322.61684546277,200.00000000000009C322.61684546277,200.00000000000009,322.61684546277,200.00000000000009,322.61684546277,200.00000000000009C322.61684546277,200.00000000000009,322.61684546277,200.0000000000001,322.61684546277,200.0000000000001C322.61684546277,200.0000000000001,322.61684546277,200.0000000000001,322.4978053336759,200.1860974277786C322.3787652045818,200.37219485555707,322.14068494639355,200.74438971111408,320.56678376361305,203.06804976153524C318.9928825808326,205.3917098119564,316.0831604734598,209.66683505724168,313.17343836608717,213.71125341121478C310.2637162587144,217.75567176518794,307.35399415134174,221.5693832278489,304.444272043969,225.1795729083565C301.5345499365963,228.78976258886414,298.62482782922353,232.19643048721832,295.7151057218508,235.42157369112445C292.8053836144781,238.64671689503055,289.8956615071054,241.69033540448856,286.9859393997327,244.57037909743067C284.07621729235996,247.4504227903728,281.16649518498724,250.16689166679907,278.2567730776145,252.7345330016418C275.3470509702418,255.30217433648454,272.4373288628691,257.7209881297437,269.5276067554964,260.0031527382759C266.61788464812366,262.2853173468081,263.70816254075095,264.4308327706131,260.79844043337823,266.4497893789751C257.8887183260055,268.46874598733706,254.9789962186328,270.3611437802558,252.0692741112601,272.135353670087C249.1595520038874,273.9095635599182,246.24982989651468,275.5655855466618,243.34010778914194,277.1103556384439C240.43038568176925,278.655125730226,237.5206635743965,280.0886439270467,234.61094146702376,281.4166321889223C231.70121935965108,282.74462045079787,228.7914972522784,283.96707877772843,225.88177514490565,285.08868687177943C222.9720530375329,286.2102949658305,220.06233093016021,287.231052827002,217.15260882278753,288.1547312642844C214.24288671541478,289.0784097015669,211.33316460804204,289.9050087149604,208.42344250066935,290.63749293347456C205.51372039329667,291.36997715198885,202.60399828592392,292.0083465756238,199.69427617855118,292.55483738784824C196.7845540711785,293.1013282000727,193.8748319638058,293.5559404008865,190.96510985643306,293.9202385833145C188.05538774906032,294.28453676574236,185.14566564168763,294.5585209297843,182.23594353431494,294.74312293994245C179.3262214269422,294.9277249501005,176.41649931956945,295.0229448063748,173.50677721219677,295.029104429286C170.59705510482405,295.0352640521972,167.68733299745134,294.9523634417453,164.77761089007862,294.78012238262727C161.8678887827059,294.6078813235092,158.9581666753332,294.346299815725,156.04844456796047,293.9944887133724C153.13872246058773,293.6426776110198,150.229000353215,293.2006369140988,147.3192782458423,292.6668468235293C144.40955613846958,292.1330567329598,141.49983403109687,291.5075172487418,138.59011192372415,290.78804021963106C135.68038981635144,290.06856319052036,132.77066770897872,289.2551486165169,129.860945601606,288.3448844634857C126.95122349423328,287.4346203104544,124.04150138686059,286.4275065783953,121.13177927948784,285.3198311753958C118.22205717211516,284.21215577239633,115.31233506474241,283.0039186984564,112.40261295736973,281.69050697942C109.49289084999698,280.37709526038356,106.5831687426243,278.95850889625063,103.67344663525155,277.4291030069364C100.76372452787884,275.8996971176222,97.85400242050612,274.25947170312674,94.9442803131334,272.5015811476102C92.03455820576069,270.7436905920936,89.12483609838797,268.868134895556,86.21511399101526,266.8666506591673C83.30539188364254,264.86516642277866,80.39566977626983,262.737753646539,77.48594766889711,260.4744515751326C74.5762255615244,258.2111495037262,71.66650345415167,255.81195813715314,68.75678134677895,253.2648574415966C65.84705923940624,250.71775674604007,62.93733713203352,248.02274672150006,60.027615024660804,245.16527602954866C57.11789291728809,242.30780533759722,54.20817080991537,239.28787397823444,51.29844870254266,236.08777780795654C48.38872659516994,232.88768163767864,45.479004487797226,229.5074206564856,42.459479573326,225.77361056992416C39.43995465885478,222.03980048336268,36.31062693728504,217.95244129143273,33.181299215715306,213.59791467888417"
       id="path289" /></clipPath><g
     inkscape:groupmode="layer"
     id="layer1"
     inkscape:label="Layer 1"
     transform="matrix(0.99999473,0,0,0.99999473,39.212899,212.7438)"
     style="stroke-width:1.00001" /><g
     inkscape:groupmode="layer"
     id="layer2"
     inkscape:label="Layer 2"
     transform="matrix(0.99999473,0,0,0.99999473,39.212899,212.7438)"
     style="stroke-width:1.00001" /><g
     id="g25142"
     transform="matrix(1.0145001,0,0,1.0145001,18.020384,13.751296)"
     style="stroke-width:0.985712"><rect
       style="fill:#4e0473;fill-opacity:1;stroke-width:19.7141;stroke-linecap:round;stroke-linejoin:round;stop-color:#000000"
       id="rect1613"
       width="118.10677"
       height="39.65218"
       x="16.889322"
       y="231.48291"
       rx="0"
       ry="0" /><text
       xml:space="preserve"
       style="font-style:normal;font-weight:normal;font-size:48.2083px;line-height:1.25;font-family:sans-serif;fill:#000000;fill-opacity:1;stroke:none;stroke-width:0.985712"
       x="21.685902"
       y="266.25092"
       id="text1557"><tspan
         sodipodi:role="line"
         id="tspan1555"
         x="21.685902"
         y="266.25092"
         style="font-style:normal;font-variant:normal;font-weight:bold;font-stretch:normal;font-size:48.2083px;font-family:Roboto;-inkscape-font-specification:'Roboto Bold';stroke-width:0.985712"><tspan
           style="font-style:italic;font-variant:normal;font-weight:bold;font-stretch:normal;font-family:Roboto;-inkscape-font-specification:'Roboto Bold Italic';fill:#ffffff;stroke-width:0.985712"
           id="tspan1559">stats </tspan><tspan
           style="fill:#4e0473;fill-opacity:1;stroke-width:0.985712"
           id="tspan20390">breaks</tspan></tspan></text></g><g
     id="g25134"
     transform="matrix(1.157347,0,0,1.157347,-187.17797,25.781044)"
     style="stroke-width:0.864049"><circle
       style="fill:#4e0473;fill-opacity:1;stroke-width:17.2809;stroke-linecap:round;stroke-linejoin:round;stop-color:#000000"
       id="path3018"
       cx="311.07544"
       cy="252.40669"
       r="20" /><text
       xml:space="preserve"
       style="font-style:normal;font-weight:normal;font-size:28.925px;line-height:1.25;font-family:sans-serif;fill:#000000;fill-opacity:1;stroke:none;stroke-width:0.864041"
       x="295.13193"
       y="259.54007"
       id="text1557-7"><tspan
         sodipodi:role="line"
         id="tspan1555-0"
         x="295.13193"
         y="259.54007"
         style="font-style:normal;font-variant:normal;font-weight:bold;font-stretch:normal;font-size:28.925px;font-family:Roboto;-inkscape-font-specification:'Roboto Bold';fill:#ffffff;stroke-width:0.864041">.js</tspan></text></g><rect
     style="opacity:1;fill:#4e0473;fill-opacity:0.1;stroke-width:19.9999;stroke-linecap:round;stroke-linejoin:round;stop-color:#000000"
     id="rect20465"
     width="46.759003"
     height="62.508465"
     x="16.889322"
     y="170.76437" /><rect
     style="opacity:1;fill:#4e0473;fill-opacity:0.2;stroke-width:19.9999;stroke-linecap:round;stroke-linejoin:round;stop-color:#000000"
     id="rect20465-3"
     width="46.759003"
     height="85.310371"
     x="70.217041"
     y="147.96246" /><rect
     style="opacity:1;fill:#4e0473;fill-opacity:0.4;stroke-width:19.9999;stroke-linecap:round;stroke-linejoin:round;stop-color:#000000"
     id="rect20465-3-6"
     width="46.759003"
     height="172.19795"
     x="123.54471"
     y="61.074886"
     inkscape:transform-center-x="59.737041"
     inkscape:transform-center-y="49.538286" /><rect
     style="opacity:1;fill:#4e0473;fill-opacity:0.6;stroke-width:19.9999;stroke-linecap:round;stroke-linejoin:round;stop-color:#000000"
     id="rect20465-3-6-0"
     width="46.759003"
     height="140.4845"
     x="176.87242"
     y="92.788338"
     inkscape:transform-center-x="59.737041"
     inkscape:transform-center-y="40.414888" /><rect
     style="opacity:1;fill:#4e0473;fill-opacity:0.8;stroke-width:19.9999;stroke-linecap:round;stroke-linejoin:round;stop-color:#000000"
     id="rect20465-3-6-0-6"
     width="46.759003"
     height="105.14287"
     x="230.2001"
     y="128.12997"
     inkscape:transform-center-x="59.737041"
     inkscape:transform-center-y="30.247729" /><rect
     style="opacity:1;fill:#4e0473;fill-opacity:1;stroke-width:19.9999;stroke-linecap:round;stroke-linejoin:round;stop-color:#000000"
     id="rect20465-3-6-0-6-2"
     width="46.759003"
     height="27.676634"
     x="283.5278"
     y="205.59621"
     inkscape:transform-center-x="59.737041"
     inkscape:transform-center-y="7.96208" /><path
     style="fill:none;fill-opacity:1;stroke:#4e0473;stroke-width:3;stroke-linecap:butt;stroke-linejoin:miter;stroke-dasharray:none;stroke-opacity:1"
     d="m 39.640161,170.33827 53.447329,-21.61371 11.67949,-18.74495 m 17.42299,-27.96297 24.75215,-39.72587 53.06461,31.46494 54.66337,35.53441 53.14737,76.71312"
     id="path24821"
     sodipodi:nodetypes="cccccccc" /><circle
     style="opacity:1;fill:#ffffff;fill-opacity:1;stroke:#4e0473;stroke-width:3;stroke-linecap:round;stroke-linejoin:round;stroke-dasharray:none;stroke-opacity:1;stop-color:#000000"
     id="path24552"
     cx="39.518738"
     cy="171.0298"
     r="5.9584889" /><circle
     style="fill:#ffffff;fill-opacity:1;stroke:#4e0473;stroke-width:3;stroke-linecap:round;stroke-linejoin:round;stroke-dasharray:none;stroke-opacity:1;stop-color:#000000"
     id="path24552-6"
     cx="93.060341"
     cy="148.57591"
     r="5.9584889" /><circle
     style="fill:#ffffff;fill-opacity:1;stroke:#4e0473;stroke-width:3;stroke-linecap:round;stroke-linejoin:round;stroke-dasharray:none;stroke-opacity:1;stop-color:#000000"
     id="path24552-6-1"
     cx="146.60194"
     cy="62.406631"
     r="5.9584889" /><circle
     style="fill:#ffffff;fill-opacity:1;stroke:#4e0473;stroke-width:3;stroke-linecap:round;stroke-linejoin:round;stroke-dasharray:none;stroke-opacity:1;stop-color:#000000"
     id="path24552-6-1-8"
     cx="200.14354"
     cy="94.978775"
     r="5.9584889" /><circle
     style="fill:#ffffff;fill-opacity:1;stroke:#4e0473;stroke-width:3;stroke-linecap:round;stroke-linejoin:round;stroke-dasharray:none;stroke-opacity:1;stop-color:#000000"
     id="path24552-6-1-8-7"
     cx="253.68515"
     cy="128.61832"
     r="5.9584889" /><circle
     style="fill:#ffffff;fill-opacity:1;stroke:#4e0473;stroke-width:3;stroke-linecap:round;stroke-linejoin:round;stroke-dasharray:none;stroke-opacity:1;stop-color:#000000"
     id="path24552-6-1-8-7-9"
     cx="307.22675"
     cy="206.68143"
     r="5.9584889" /><path
     style="fill:#4e0473;fill-opacity:1;stroke-width:1"
     d="m 71.08958,128.75002 c -0.08236,-0.0358 -0.325286,-0.13967 -0.539813,-0.23088 -0.710076,-0.3019 -1.873275,-1.04594 -2.410462,-1.54185 -0.656271,-0.60582 -1.361017,-1.74417 -1.661846,-2.68426 -0.614847,-1.92146 -0.476387,-4.07908 0.380947,-5.93587 1.375298,-2.97868 4.439529,-4.6056 8.30272,-4.40829 1.130579,0.0577 1.825771,0.18191 3.196586,0.57093 0.712105,0.20213 2.114008,0.58566 3.115348,0.85225 1.61038,0.42896 1.91133,0.49426 2.60675,0.56653 1.43531,0.14916 2.35322,0.1119 3.52132,-0.1429 1.70314,-0.37151 3.22265,-1.22399 4.56355,-2.56026 0.20577,-0.20506 0.38249,-0.40404 0.39271,-0.44217 0.0312,-0.11636 -0.41751,-1.44863 -0.65939,-1.95791 -0.96843,-2.03898 -2.49112,-3.43301 -4.91156,-4.49656 -1.16538,-0.51206 -2.39931,-0.87217 -5.03778,-1.47024 -2.55569,-0.5793 -3.326082,-0.7969 -4.452782,-1.25748 -1.148948,-0.46975 -1.924965,-0.99314 -2.687205,-1.81241 -0.571763,-0.61455 -0.884937,-1.05761 -1.279847,-1.81071 -1.086376,-2.071777 -1.231291,-4.321312 -0.421714,-6.546443 0.499398,-1.372635 1.246649,-2.366235 2.439726,-3.244066 1.438288,-1.058256 3.298265,-1.594773 5.187072,-1.496212 0.82119,0.04285 2.1741,0.362191 2.91274,0.687581 2.71741,1.196889 4.60896,3.892013 4.63601,6.605518 0.008,0.788165 -0.079,1.29012 -0.426,2.460462 -0.41845,1.41158 -0.65867,1.84383 -1.47951,2.66254 -0.43318,0.43203 -0.72615,0.9124 -0.75287,1.23444 -0.0384,0.46287 0.32228,0.88057 1.18983,1.37782 0.24834,0.14232 1.26291,0.63692 2.25463,1.09905 2.65301,1.23632 3.78504,1.83337 5.28918,2.78961 1.26364,0.80335 2.85042,2.03726 3.70401,2.8803 l 0.31909,0.31515 1.28009,-0.14794 c 1.28789,-0.14884 3.46562,-0.39816 8.98364,-1.02852 3.02755,-0.34585 5.49868,-0.62866 11.3258,-1.29617 6.32222,-0.72424 6.1549,-0.70793 7.22728,-0.70437 1.08247,0.004 1.83394,0.10125 3.06484,0.39834 0.75734,0.18275 1.33403,0.35076 1.65408,0.48228 1.94562,0.79829 3.35235,1.98252 4.26023,3.58635 0.20986,0.37073 0.36155,0.68616 0.33711,0.70097 -0.052,0.0315 -1.44328,0.20982 -19.03409,2.4395 -7.14245,0.90533 -10.39955,1.31978 -10.70251,1.36183 -0.10624,0.0148 -0.10433,0.0248 0.0229,0.12243 0.15764,0.12086 11.32003,8.34004 18.99042,13.98312 2.81637,2.07199 5.14621,3.79259 5.17742,3.82354 0.0387,0.0384 -0.14874,0.17648 -0.59017,0.4347 -1.33695,0.78205 -2.76078,1.17505 -4.25999,1.17579 -1.01332,5.1e-4 -1.39797,-0.0558 -2.62752,-0.38505 -1.94647,-0.52115 -2.54281,-0.83736 -5.53823,-2.93691 -1.1999,-0.84103 -2.66729,-1.86928 -3.26086,-2.28498 -0.59357,-0.41572 -1.74963,-1.22538 -2.56902,-1.79925 -0.81939,-0.57386 -2.1549,-1.50933 -2.96781,-2.07882 -0.81289,-0.56949 -2.14842,-1.50491 -2.96782,-2.07872 -0.81941,-0.5738 -2.14962,-1.50568 -2.95601,-2.07086 -0.80639,-0.56517 -2.12599,-1.48983 -2.93244,-2.05479 -0.80645,-0.56496 -2.02244,-1.41715 -2.70221,-1.89375 l -1.23594,-0.86656 -0.35974,0.0623 c -3.87649,0.67127 -7.06861,0.81175 -11.37455,0.50054 -2.12411,-0.15352 -2.49387,-0.13165 -2.86794,0.16961 -0.18527,0.14922 -0.20886,0.19595 -0.32993,0.65326 -0.12842,0.4864 -0.12854,0.50706 -0.009,1.62959 0.1689,1.57785 0.14175,2.32789 -0.11982,3.31024 -0.45539,1.70907 -1.58424,3.22321 -3.066943,4.11237 -1.476048,0.88519 -3.081925,1.24243 -4.93129,1.09703 -0.475587,-0.0374 -1.907143,-0.34853 -2.211779,-0.48072 z m 2.451025,-2.01343 c 0.688836,0.0459 1.59676,-0.0281 2.060149,-0.16793 0.854519,-0.25776 1.610666,-0.78336 2.268996,-1.5772 1.51901,-1.83162 1.90321,-4.42781 0.926011,-6.25739 -0.349533,-0.65442 -1.173281,-1.4549 -1.995155,-1.93877 -0.503608,-0.29649 -1.685509,-0.60321 -2.293869,-0.59535 -2.348979,0.0305 -4.590807,1.44851 -5.530743,3.49815 -0.306934,0.6693 -0.518418,1.71764 -0.497713,2.4675 0.03289,1.1932 0.816488,2.57091 1.928396,3.39051 0.874253,0.64443 2.117723,1.1128 3.133941,1.18044 z m 7.174045,-24.75665 c 1.53753,-0.002 2.76926,-0.58143 3.70819,-1.74544 0.77839,-0.96496 1.24497,-2.408227 1.20624,-3.7312 -0.0478,-1.632712 -0.70963,-3.060161 -1.89894,-4.0958 -1.18635,-1.033062 -3.01741,-1.48667 -4.673903,-1.157862 -1.116082,0.221542 -2.071676,0.75493 -2.720225,1.518369 -0.773146,0.910094 -1.291399,2.207161 -1.30675,3.270446 -0.01721,1.190944 0.384932,2.430027 1.113685,3.431707 1.179312,1.62097 2.801861,2.51172 4.571703,2.50979 z"
     id="path25402"
     inkscape:transform-center-x="-27.23297"
     inkscape:transform-center-y="124.65228" /><path
     style="fill:#c83737;stroke:none;stroke-width:1px;stroke-linecap:butt;stroke-linejoin:miter;stroke-opacity:1"
     d="m -582.88669,287.24466 164.54483,95"
     id="path32233" /><path
     style="fill:#c83737;stroke:none;stroke-width:1px;stroke-linecap:butt;stroke-linejoin:miter;stroke-opacity:1"
     d="M -418.34186,382.24466 V 2.2446614"
     id="path32967" /></svg>
